Patient5_TMGait_0pt45_1_right_09_EMG.mot
version=1
nRows=26
nColumns=33
inDegrees=no
endheader
time	1LAddLong	2LGlutMax	3LGlutMed	4LIliopsoas	5LSemiMemb	6LBicFemLong	7LRecFem	8LTensFascLat	9LVastMed	10LVasLat	11LGasMed	12lGasLat	13LTibAnt	14LPeroneusLong	15LSol	16LTibPost	17RAddLong	18RGlutMax	19RGlutMed	20RIliopsoas	21RSemiMemb	22RBicFemLong	23RRecFem	24RTensFascLat	25RVastMed	26RVasLat	27RGasMed	28RGasLat	29RTibAnt	30RPeroneusLong	31RSol	32RTibPost
15.192	-0.12604	0.002441	-0.003052	-0.006409	0.045166	-0.013275	0.00885	0.25024	0.020294	-0.00412	-0.006104	0.001984	0.001984	0.005951	0.024719	-0.006256	0.00412	0.042877	0.82214	0.82153	-0.031738	0.22949	-0.006409	0.093842	-0.1767	0.009003	0.009918	0.023499	0.010834	0.002136	-0.005035	-0.04303
15.193	-0.20966	0.002441	0.01297	-0.016174	0.03891	-0.011902	0.008545	0.26871	0.017395	0.002441	0.004883	0.004578	0.024414	-0.004578	0.033569	0.010529	0.000153	0.026245	0.47562	-0.31372	-0.51758	0.26718	-0.008545	0.076141	-0.16739	0.012512	0.016022	0.015564	0.023956	0.001678	0.008698	-0.26077
15.194	-0.15457	0.004425	0.041046	-0.004272	0.035706	-0.007935	0.006409	0.25955	0.016022	-0.006256	0.002289	-0.001068	0.031586	0.001831	0.022736	0.009003	-0.000305	0.023651	0.19928	-0.50369	-0.49576	0.13245	-0.020142	0.075989	-0.13412	-0.085449	0.0177	-0.003815	0.030365	-0.003662	0.01709	-0.29327
15.195	-0.093231	0.005493	0.040436	-0.004883	0.024414	-0.010529	0.005035	0.31906	0.020752	-0.000305	0.003357	-0.00061	-0.010071	0.006256	0.02655	-0.077209	0.002594	0.017242	0.075226	0.32623	-0.27161	-0.019531	-0.022888	0.010071	-0.075226	-0.15564	0.01297	-0.010834	0.012817	0.013428	0.028687	0.1799
15.196	-0.028839	0.006409	0.018311	0.001526	0.042114	-0.011444	-0.002441	0.31342	0.018463	0	0.00061	-0.003815	0.030518	0.021515	0.027618	0.029602	-0.000763	0.016022	-0.48981	0.28366	-0.11612	-0.023346	-0.021515	0.027008	0.046082	-0.11704	0.007172	0.00473	-0.002136	0.003967	0.013733	0.003357
15.197	0.031586	0.007019	-0.029602	0.00824	0.028992	-0.014496	0.007477	0.35538	0.014343	-0.001221	-0.001221	0.012512	0.031281	0.030823	0.025024	-0.061798	-0.007935	0.009155	-0.48645	-0.21439	-0.32394	0.12878	-0.010529	0.029449	0.13275	-0.077209	-0.005646	-0.032043	-0.010376	-0.000916	-0.007172	-0.047607
15.198	0.049591	0	-0.05127	0.018158	0.049438	-0.007629	0.011902	0.36774	0.019226	0.012054	-0.002594	0.009766	-0.025177	0.033112	0.02533	0.045471	-0.007935	0.005646	-0.25925	-0.27618	-0.4602	0.3418	-0.011902	0.017395	0.14511	-0.016022	-0.006714	-0.066376	-0.007935	-0.002289	-0.030518	0.18509
15.199	0.12558	0.006866	-0.058441	0.00412	0.029907	-0.011597	0.016022	0.36804	0.01709	0.004272	-0.015411	0.014954	-0.08667	0.052032	0.021057	0.035095	-0.019836	0.000763	-0.076447	-0.27176	-0.35873	0.28854	0.001526	0.015411	0.076294	0.053253	-0.000763	-0.031281	-0.008698	0.000153	-0.024719	-0.10376
15.2	0.15137	0.000305	-0.059967	-0.001831	0.021973	-0.019684	0.016937	0.44037	0.009613	0.001831	-0.016022	0.014191	-0.19134	0.055542	0.019989	-0.14679	-0.007324	0.00412	-0.10803	0.059204	-0.1207	0.05249	-0.002747	-0.077972	-0.002289	0.14053	0.011139	0.006714	-0.00473	0.004883	-0.000916	-0.018921
15.201	0.14191	-0.001068	-0.057831	0.011597	0.012665	-0.010223	0.012665	0.42938	0.013733	0.001068	-0.005798	0.011139	-0.20508	0.041962	0.019836	0.000458	0.006714	0.003662	-0.19745	-0.24918	0.063629	0.015869	-0.01297	-0.093842	0.00946	0.066528	0.002441	0.028534	-0.006561	-0.00885	0.016632	-0.15442
15.202	0.15732	-0.001831	-0.048065	0.011749	0.02121	-0.007019	0.019836	0.36346	0.016937	0.000153	0.002899	0.000305	-0.16571	0.024261	0.023804	0.042572	0.00351	0.005188	-0.25314	-0.42358	0.2066	0.044403	-0.019226	-0.088501	0.041046	-0.046997	0.001373	0.045166	-0.008698	-0.006561	0.006409	-0.011749
15.203	0.039825	-0.00412	-0.039825	0.008545	0.032043	-0.020752	0.021515	0.31448	0.012665	0.001526	0.008392	-0.002899	-0.15915	0.024719	0.031433	0.071106	0.006256	0.002594	-0.26977	-0.071716	0.28076	-0.10086	-0.024872	-0.005646	0.048065	0.023651	-0.002747	0.057983	-0.010223	-0.009308	-0.02243	0.47516
15.204	0.096588	0.000153	-0.021973	0.008392	0.016174	-0.013733	0.022583	0.27252	-0.003815	-0.003815	0.006409	0.002441	-0.067444	0.025024	0.030212	0.025482	0.007629	-0.008545	-0.30731	0.16907	0.2478	-0.09903	-0.019684	-0.021667	0.06958	0.053101	0.014191	0.057373	-0.011902	-0.008545	-0.030823	0.045776
15.205	0.13367	-0.003204	-0.02243	-0.005035	-0.000916	-0.010986	0.025635	0.23377	-0.010529	0.00061	-0.006561	0.005493	0.039215	0.025787	0.028839	-0.028992	0.000458	-0.010529	-0.2243	0.037842	0.21316	-0.12115	-0.014801	-0.10666	0.052795	0.094604	0.043182	-0.006866	-0.01236	-0.007935	-0.030212	-0.23346
15.206	0.13062	-0.001831	0.007935	-0.046387	0.020142	-0.011139	0.024719	0.27481	-0.004883	0.00824	-0.001678	0.000153	0.1651	0.024872	0.025024	-0.071716	0.002289	-0.006256	-0.071564	-0.11078	0.16785	-0.13184	-0.001678	-0.11719	0.046387	0.18448	0.05249	0.007172	-0.010223	-0.009003	-0.018311	-0.19043
15.207	0.11993	0.003967	-0.01297	0.025787	0.020752	0.002747	0.026245	0.20142	0.003052	0.001068	-0.010071	-0.000916	0.15472	0.017242	0.016022	-0.48141	0.00885	-0.009308	0.20493	-0.02121	-0.12421	-0.16953	-0.006256	-0.1506	-0.011444	0.23025	0.041809	0.014954	-0.001526	-0.016937	-0.010071	-0.09491
15.208	0.12115	0.006561	-0.006256	-0.00061	0.021667	0.005951	0.029907	0.10834	0.005188	0.001984	-0.001831	0.006561	0.15015	0.02594	0.009918	0.050964	0.002289	-0.000458	0.21378	0.085449	-0.36728	-0.18112	-0.00412	-0.28122	-0.045013	0.35416	-0.030212	0.003204	-0.009613	-0.022583	-0.010376	0.019684
15.209	0.11612	0.003357	0.015106	-0.007629	0.024719	-0.008698	0.034943	0.15701	0.005188	0.006256	-0.013275	0.005951	0.11154	0.024567	0.007935	0.054169	0.005188	-0.003204	0.026855	-0.42526	-0.47882	-0.16113	-0.00946	-0.31113	-0.054932	0.20355	-0.082855	0.009613	-0.010681	-0.03006	0.014954	-0.086823
15.21	0.090942	0.002289	0.00473	-0.001831	0.012207	-0.001526	0.044861	0.15655	0.008545	0.005188	-0.015411	0.015717	0.088654	0.034637	0.014648	0.026398	0.000305	-0.003662	-0.19333	-0.25986	-0.40665	-0.14862	-0.02243	-0.23361	-0.040894	-0.23529	-0.041809	0.027924	-0.009155	-0.019379	0.054321	-0.064697
15.211	0.039978	0.003052	-0.000305	-0.001526	0.010834	0.010681	0.050812	0.21088	0.006409	0.011139	-0.014801	0.017242	0.094757	0.031891	0.015411	-0.023193	0.000305	-0.014954	-0.50003	0.18631	-0.28153	-0.15564	-0.031586	-0.074921	0.008392	-0.7309	-0.00885	0.010681	-0.006104	-0.016327	0.08667	-0.004272
15.212	-0.049744	0.001984	0.008392	0.010223	0.008087	-0.004425	0.051422	0.30106	0.007935	0.012817	-0.008545	0.021973	0.085907	0.038757	0.024719	-0.029449	-0.010834	-0.020142	-0.5658	0.26794	-0.14358	-0.16892	-0.014954	0.037384	0.024414	-0.35202	0.007629	0.024414	-0.010986	-0.006104	0.042877	0.014191
15.213	-0.056	0.004425	0.01297	0.005951	0.001068	0.008087	0.04837	0.30609	0.007019	0.000305	-0.001831	0.012817	0.068054	0.039215	0.033112	-0.099182	-0.062866	-0.014954	-0.73608	0.44052	-0.10529	-0.19867	0.002594	0.20645	0.056152	0.028381	0.009613	0.045013	-0.010834	-0.009003	0.014038	0.043488
15.214	-0.027618	0.004272	-0.002136	-0.014343	0.014191	0.006104	0.042114	0.21194	0.004578	0.006714	0.001526	0.014648	0.066681	0.039368	0.046387	-0.10941	-0.053406	-0.001526	-0.62347	-0.20584	-0.034485	-0.20477	-0.019531	0.31143	0.079346	0.068207	-0.001831	0.062256	-0.013733	-0.005798	0.001831	0.046539
15.215	0.006409	0.002289	0.014038	0.033112	0.025024	0.006714	0.038452	0.22354	0.007324	0.000763	0.003967	0.015411	0.001678	0.038605	0.036774	-0.085144	-0.036774	0.002594	-0.42221	-0.22675	0.024567	-0.16159	-0.023956	0.19501	0.062408	-0.023804	0.000153	0.050659	-0.016327	-0.001831	0.002899	0.04776
15.216	0.018463	0.001526	0.00946	-0.034332	0.005798	0.005646	0.001221	0.17792	0.008087	0.007324	0.010071	0.011444	-0.076447	0.033875	0.046997	0.032349	-0.03067	0.010223	0.16159	-0.21988	-0.029602	-0.005951	-0.02655	-0.012207	0.057068	-0.057983	-0.009613	0.032043	-0.015564	0.001068	0.006866	0.35446
15.217	-0.008392	0.002594	0.002899	0.045166	0.012817	-0.001678	-0.006866	0.2681	0.006104	0.00946	0.018311	0.00412	-0.088348	0.018158	0.060425	-0.075531	-0.026703	0.011749	0.25772	-0.036011	-0.13001	0.17166	-0.023956	-0.1326	0.014648	-0.079956	-0.004272	-0.032043	-0.020599	0.005341	0.005341	0.084229
